<mxfile host="app.diagrams.net" modified="2023-12-02T10:37:51.383Z" agent="Mozilla/5.0 (Macintosh; Intel Mac OS X 10_15_7) AppleWebKit/605.1.15 (KHTML, like Gecko) Version/17.1 Safari/605.1.15" version="22.1.5" etag="0v9xIPTZZYLZPz04S5Vu" type="github">
  <diagram name="Page-1" id="NdqWk4S9kRrPA7vwB6b7">
    <mxGraphModel>
      <root>
        <mxCell id="0" />
        <mxCell id="1" parent="0" />
      </root>
    </mxGraphModel>
  </diagram>
</mxfile>
